<?xml version="1.0" encoding="utf-8"?>
<?xml-stylesheet href="../css/style.css" type="text/css"?>

<svg xmlns="http://www.w3.org/2000/svg" viewBox="0 0 121 90">
  <g id="menu-icon">
    <g>
      <rect x="0.5" y="0.5" width="120" height="19" rx="9.32" fill="#363636"/>
      <path d="M111.18,1A8.83,8.83,0,0,1,120,9.82v.36A8.83,8.83,0,0,1,111.18,19H9.82A8.83,8.83,0,0,1,1,10.18V9.82A8.83,8.83,0,0,1,9.82,1H111.18m0-1H9.82A9.82,9.82,0,0,0,0,9.82v.36A9.82,9.82,0,0,0,9.82,20H111.18A9.82,9.82,0,0,0,121,10.18V9.82A9.82,9.82,0,0,0,111.18,0Z" stroke="#363636"/>
    </g>
    <g>
      <rect x="0.5" y="35.5" width="120" height="19" rx="9.32" fill="#363636"/>
      <path d="M111.18,36A8.83,8.83,0,0,1,120,44.82v.36A8.83,8.83,0,0,1,111.18,54H9.82A8.83,8.83,0,0,1,1,45.18v-.36A8.83,8.83,0,0,1,9.82,36H111.18m0-1H9.82A9.82,9.82,0,0,0,0,44.82v.36A9.82,9.82,0,0,0,9.82,55H111.18A9.82,9.82,0,0,0,121,45.18v-.36A9.82,9.82,0,0,0,111.18,35Z" stroke="#363636"/>
    </g>
    <g>
      <rect x="0.5" y="70.5" width="120" height="19" rx="9.32" fill="#363636"/>
      <path d="M111.18,71A8.83,8.83,0,0,1,120,79.82v.36A8.83,8.83,0,0,1,111.18,89H9.82A8.83,8.83,0,0,1,1,80.18v-.36A8.83,8.83,0,0,1,9.82,71H111.18m0-1H9.82A9.82,9.82,0,0,0,0,79.82v.36A9.82,9.82,0,0,0,9.82,90H111.18A9.82,9.82,0,0,0,121,80.18v-.36A9.82,9.82,0,0,0,111.18,70Z" stroke="#363636"/>
    </g>
  </g>
</svg>
